<svg width="512" height="512" viewBox="0 0 512 512" fill="none" xmlns="http://www.w3.org/2000/svg">
<g clip-path="url(#clip0_101_109)">
<rect width="512" height="512" rx="90" fill="#C16552"/>
<path d="M252.084 373.941C228.059 373.941 206.884 368.24 188.56 356.838C170.643 345.029 156.594 329.351 146.414 309.805C136.641 289.852 131.755 268.27 131.755 245.06C131.755 218.591 138.27 196.195 151.3 177.871C164.331 159.139 180.823 145.294 200.776 136.335C221.136 126.97 241.904 122.287 263.079 122.287C287.104 122.287 308.075 128.191 325.992 140C344.316 151.809 358.365 167.487 368.138 187.033C377.911 206.171 382.797 226.532 382.797 248.114C382.797 273.361 376.893 295.553 365.084 314.692C353.275 333.423 337.394 348.083 317.441 358.67C297.488 368.85 275.702 373.941 252.084 373.941ZM269.798 362.335C290.972 362.335 307.261 354.395 318.662 338.514C330.471 322.633 336.376 298.404 336.376 265.827C336.376 240.173 332.304 217.37 324.16 197.416C316.016 177.463 304.817 161.99 290.565 150.995C276.313 140 260.432 134.503 242.922 134.503C222.154 134.503 206.07 142.24 194.668 157.714C183.266 173.188 177.565 195.788 177.565 225.514C177.565 250.761 181.434 273.971 189.171 295.146C197.315 315.914 208.309 332.405 222.154 344.622C235.999 356.431 251.88 362.335 269.798 362.335Z" fill="white"/>
</g>
<defs>
<clipPath id="clip0_101_109">
<rect width="512" height="512" fill="white"/>
</clipPath>
</defs>
</svg>
