<svg width="512" height="512" viewBox="0 0 512 512" fill="none" xmlns="http://www.w3.org/2000/svg">
<g clip-path="url(#clip0_101_117)">
<rect width="512" height="512" rx="90" fill="#C16552"/>
<path d="M252.464 387.415C250.364 392.815 247.214 396.415 243.014 398.215L206.114 415.765H205.664C204.764 415.765 204.014 415.315 203.414 414.415C202.814 413.815 202.664 413.215 202.964 412.615L319.964 161.065C321.164 158.965 320.564 157.915 318.164 157.915C275.564 157.915 246.014 158.515 229.514 159.715C213.014 160.915 201.914 163.465 196.214 167.365C190.814 171.265 186.764 178.315 184.064 188.515C183.464 189.115 182.714 189.415 181.814 189.415C180.914 189.415 180.014 189.265 179.114 188.965C178.514 188.365 178.364 187.765 178.664 187.165L198.914 106.165C199.214 105.565 200.264 105.415 202.064 105.715C203.864 105.715 204.614 106.015 204.314 106.615C204.014 107.815 203.864 109.315 203.864 111.115C203.864 114.115 205.214 116.065 207.914 116.965C210.914 117.865 216.764 118.315 225.464 118.315H344.714C345.914 118.315 346.964 119.065 347.864 120.565C349.064 121.765 349.364 122.965 348.764 124.165L252.464 387.415Z" fill="white"/>
</g>
<defs>
<clipPath id="clip0_101_117">
<rect width="512" height="512" fill="white"/>
</clipPath>
</defs>
</svg>
