<svg width="512" height="512" viewBox="0 0 512 512" fill="none" xmlns="http://www.w3.org/2000/svg">
<g clip-path="url(#clip0_101_62)">
<rect width="512" height="512" rx="90" fill="#C16552"/>
<path d="M161.134 353.616C196.968 324.297 224.251 300.476 242.983 282.151C262.121 263.42 275.763 247.132 283.907 233.287C292.458 219.034 296.734 204.782 296.734 190.53C296.734 174.242 291.848 161.008 282.075 150.827C272.302 140.24 259.678 134.946 244.204 134.946C213.257 134.946 190.249 160.397 175.183 211.298C175.183 211.705 174.368 211.908 172.74 211.908C169.075 211.908 167.446 211.094 167.853 209.465L192.286 114.79C192.286 113.975 193.1 113.568 194.729 113.568C195.95 113.568 196.968 113.975 197.783 114.79C199.004 115.197 199.412 115.604 199.004 116.011C198.597 117.64 198.394 119.88 198.394 122.73C198.394 129.245 201.448 132.503 207.556 132.503C210.813 132.503 217.125 131.078 226.491 128.227C243.186 122.934 258.049 120.287 271.08 120.287C292.255 120.287 308.95 125.784 321.166 136.779C333.383 147.773 339.491 162.229 339.491 180.146C339.491 195.213 334.604 210.076 324.831 224.735C315.058 238.988 301.824 253.443 285.129 268.103C268.433 282.762 244.204 302.308 212.442 326.741C211.221 327.962 210.813 328.98 211.221 329.795C212.035 330.609 213.46 331.016 215.496 331.016C257.439 331.016 287.165 330.405 304.675 329.184C322.184 327.555 335.011 324.297 343.156 319.411C351.3 314.117 356.797 305.159 359.647 292.535C359.647 291.721 360.665 291.314 362.701 291.314C365.552 291.314 366.977 291.924 366.977 293.146L357.204 357.281C357.204 358.91 356.593 360.539 355.372 362.168C354.557 363.389 353.336 364 351.707 364H165.41C163.374 364 161.745 362.778 160.523 360.335C159.302 357.485 159.505 355.245 161.134 353.616Z" fill="white"/>
</g>
<defs>
<clipPath id="clip0_101_62">
<rect width="512" height="512" fill="white"/>
</clipPath>
</defs>
</svg>
