<svg width="512" height="512" viewBox="0 0 512 512" fill="none" xmlns="http://www.w3.org/2000/svg">
<g clip-path="url(#clip0_101_101)">
<rect width="512" height="512" rx="90" fill="#C16552"/>
<path d="M245.467 178.703C245.467 166.08 244.246 156.917 241.802 151.217C239.359 145.516 234.473 141.647 227.143 139.611C220.221 137.575 209.022 136.557 193.548 136.557C192.327 136.557 191.716 135.335 191.716 132.892C191.716 130.449 192.327 129.227 193.548 129.227C205.765 129.227 215.334 129.431 222.257 129.838L264.402 130.449L305.937 129.838C313.267 129.431 323.04 129.227 335.256 129.227C336.478 129.227 337.089 130.449 337.089 132.892C337.089 135.335 336.478 136.557 335.256 136.557C320.597 136.557 309.602 137.779 302.273 140.222C294.943 142.258 289.853 146.126 287.002 151.827C284.559 157.528 283.338 166.487 283.338 178.703V315.524C283.338 328.148 284.559 337.31 287.002 343.011C289.446 348.712 294.129 352.58 301.051 354.616C308.381 356.652 319.783 357.67 335.256 357.67C336.478 357.67 337.089 358.892 337.089 361.335C337.089 363.778 336.478 365 335.256 365C323.04 365 313.471 364.796 306.548 364.389L264.402 363.778L222.867 364.389C215.538 364.796 205.765 365 193.548 365C192.327 365 191.716 363.778 191.716 361.335C191.716 358.892 192.327 357.67 193.548 357.67C208.208 357.67 219.203 356.652 226.532 354.616C233.862 352.173 238.748 348.101 241.192 342.4C244.042 336.699 245.467 327.741 245.467 315.524V178.703Z" fill="white"/>
</g>
<defs>
<clipPath id="clip0_101_101">
<rect width="512" height="512" fill="white"/>
</clipPath>
</defs>
</svg>
