<svg width="512" height="512" viewBox="0 0 512 512" fill="none" xmlns="http://www.w3.org/2000/svg">
<g clip-path="url(#clip0_101_113)">
<rect width="512" height="512" rx="90" fill="#C16552"/>
<path d="M210.258 203.815C252.258 204.415 283.008 212.215 302.508 227.215C322.308 241.915 332.208 262.165 332.208 287.965C332.208 305.065 327.708 320.515 318.708 334.315C309.708 348.415 295.608 361.915 276.408 374.815C257.508 388.015 232.308 401.665 200.808 415.765H200.358C199.158 415.765 198.108 415.015 197.208 413.515C196.608 412.315 196.908 411.415 198.108 410.815C230.508 392.515 253.158 374.065 266.058 355.465C279.258 336.865 285.858 316.915 285.858 295.615C285.858 270.715 278.508 251.365 263.808 237.565C249.108 223.765 228.108 216.865 200.808 216.865C199.308 216.865 198.108 216.415 197.208 215.515C196.308 214.315 196.008 212.965 196.308 211.465L210.708 131.365C211.008 129.265 211.458 128.065 212.058 127.765C212.658 127.165 214.158 126.715 216.558 126.415C254.358 121.915 279.708 118.765 292.608 116.965C305.508 115.165 313.758 113.365 317.358 111.565C321.258 109.465 323.958 106.165 325.458 101.665C325.758 100.765 326.658 100.465 328.158 100.765C329.958 100.765 330.708 101.365 330.408 102.565L321.408 152.515C320.508 155.815 319.158 158.065 317.358 159.265C315.558 160.165 312.708 160.615 308.808 160.615L223.308 162.415C219.408 162.415 217.158 164.515 216.558 168.715L210.258 203.815Z" fill="white"/>
</g>
<defs>
<clipPath id="clip0_101_113">
<rect width="512" height="512" fill="white"/>
</clipPath>
</defs>
</svg>
